<svg xmlns="http://www.w3.org/2000/svg" width="490.844" height="34" viewBox="0 0 490.844 34">
  <metadata><?xpacket begin="﻿" id="W5M0MpCehiHzreSzNTczkc9d"?>
<x:xmpmeta xmlns:x="adobe:ns:meta/" x:xmptk="Adobe XMP Core 5.6-c138 79.159824, 2016/09/14-01:09:01        ">
   <rdf:RDF xmlns:rdf="http://www.w3.org/1999/02/22-rdf-syntax-ns#">
      <rdf:Description rdf:about=""/>
   </rdf:RDF>
</x:xmpmeta>
                                                                                                    
                                                                                                    
                                                                                                    
                                                                                                    
                                                                                                    
                                                                                                    
                                                                                                    
                                                                                                    
                                                                                                    
                                                                                                    
                                                                                                    
                                                                                                    
                                                                                                    
                                                                                                    
                                                                                                    
                                                                                                    
                                                                                                    
                                                                                                    
                                                                                                    
                                                                                                    
                           
<?xpacket end="w"?></metadata>
<defs>
    <style>
      .cls-1 {
        fill: #babab9;
        fill-rule: evenodd;
      }
    </style>
  </defs>
  <path id="This_site_uses_AI_to_understand_what_s_in_your_photo_then_make" data-name="This site uses AI to understand what’s in your photo, then make" class="cls-1" d="M488.922,515.035V504.7h2.619v-2.988h-8.657V504.7h2.637v10.336h3.4Zm8.094-5.326h4.36v5.326h3.4V501.711h-3.4v5.01h-4.36v-5.01h-3.4v13.324h3.4v-5.326Zm14.29,5.326V501.711h-3.4v13.324h3.4Zm2.389-4.412A4.534,4.534,0,0,0,514.811,514a4.856,4.856,0,0,0,3.712,1.292,4.485,4.485,0,0,0,3.644-1.344,4.42,4.42,0,0,0,.986-2.925,3.389,3.389,0,0,0-.671-2.135,6.315,6.315,0,0,0-2.518-1.7,22.2,22.2,0,0,1-2.252-1.089,0.834,0.834,0,0,1-.43-0.723,0.932,0.932,0,0,1,.351-0.741,1.177,1.177,0,0,1,.761-0.287,1.585,1.585,0,0,1,.666.119,1.374,1.374,0,0,1,.6,1.137h3.384a4.625,4.625,0,0,0-.318-1.661,3.446,3.446,0,0,0-.76-1.186,4.513,4.513,0,0,0-3.276-1.292,5.367,5.367,0,0,0-3.382,1.107,3.585,3.585,0,0,0-1.431,3,3.132,3.132,0,0,0,.265,1.317,3.8,3.8,0,0,0,.6.993,4.32,4.32,0,0,0,.857.72,5.475,5.475,0,0,0,.82.473l0.535,0.227q0.246,0.1,1.089.453a8.694,8.694,0,0,1,1.274.636,0.861,0.861,0,0,1,.43.758,1.318,1.318,0,0,1-.359.871,1.135,1.135,0,0,1-.885.392,1.448,1.448,0,0,1-.981-0.4,1.786,1.786,0,0,1-.448-1.388H513.7Zm17.3,0A4.534,4.534,0,0,0,532.116,514a4.852,4.852,0,0,0,3.711,1.292,4.489,4.489,0,0,0,3.645-1.344,4.425,4.425,0,0,0,.986-2.925,3.389,3.389,0,0,0-.672-2.135,6.307,6.307,0,0,0-2.518-1.7,22.2,22.2,0,0,1-2.252-1.089,0.835,0.835,0,0,1-.429-0.723,0.931,0.931,0,0,1,.35-0.741,1.177,1.177,0,0,1,.762-0.287,1.583,1.583,0,0,1,.665.119,1.372,1.372,0,0,1,.6,1.137h3.384a4.625,4.625,0,0,0-.318-1.661,3.446,3.446,0,0,0-.76-1.186A4.513,4.513,0,0,0,536,501.465a5.369,5.369,0,0,0-3.382,1.107,3.585,3.585,0,0,0-1.431,3,3.147,3.147,0,0,0,.265,1.317,3.8,3.8,0,0,0,.6.993,4.349,4.349,0,0,0,.857.72,5.526,5.526,0,0,0,.82.473l0.536,0.227q0.246,0.1,1.089.453a8.673,8.673,0,0,1,1.273.636,0.861,0.861,0,0,1,.43.758,1.313,1.313,0,0,1-.359.871,1.131,1.131,0,0,1-.884.392,1.449,1.449,0,0,1-.982-0.4,1.786,1.786,0,0,1-.448-1.388H531Zm15.17,4.412V501.711h-3.4v13.324h3.4Zm8.129,0V504.7h2.619v-2.988h-8.657V504.7H550.9v10.336h3.4Zm12.234,0v-2.988h-4.14v-2.285h4.017v-2.989h-4.017V504.7h4.14v-2.988h-7.541v13.324h7.541Zm8.919-5.273a8.425,8.425,0,0,0,.264,2.373,4.558,4.558,0,0,0,1.072,1.731,4.821,4.821,0,0,0,3.735,1.424,5.078,5.078,0,0,0,3.824-1.441,4.353,4.353,0,0,0,1.01-1.609,7.707,7.707,0,0,0,.317-2.478v-8.051h-3.4v8.057a4.485,4.485,0,0,1-.211,1.672,1.423,1.423,0,0,1-1.459.862,1.51,1.51,0,0,1-1.512-.933,4.226,4.226,0,0,1-.237-1.6v-8.057h-3.4v8.051Zm12.576,0.861A4.534,4.534,0,0,0,589.144,514a4.852,4.852,0,0,0,3.711,1.292,4.489,4.489,0,0,0,3.645-1.344,4.425,4.425,0,0,0,.986-2.925,3.389,3.389,0,0,0-.672-2.135,6.307,6.307,0,0,0-2.518-1.7,22.2,22.2,0,0,1-2.252-1.089,0.835,0.835,0,0,1-.429-0.723,0.931,0.931,0,0,1,.35-0.741,1.177,1.177,0,0,1,.762-0.287,1.583,1.583,0,0,1,.665.119,1.372,1.372,0,0,1,.6,1.137h3.384a4.625,4.625,0,0,0-.318-1.661,3.446,3.446,0,0,0-.76-1.186,4.513,4.513,0,0,0-3.276-1.292,5.369,5.369,0,0,0-3.382,1.107,3.585,3.585,0,0,0-1.431,3,3.147,3.147,0,0,0,.265,1.317,3.8,3.8,0,0,0,.6.993,4.349,4.349,0,0,0,.857.72,5.526,5.526,0,0,0,.82.473l0.536,0.227q0.246,0.1,1.089.453a8.673,8.673,0,0,1,1.273.636,0.861,0.861,0,0,1,.43.758,1.313,1.313,0,0,1-.359.871,1.131,1.131,0,0,1-.884.392,1.449,1.449,0,0,1-.982-0.4,1.786,1.786,0,0,1-.448-1.388h-3.383Zm19.31,4.412v-2.988H603.2v-2.285h4.016v-2.989H603.2V504.7h4.14v-2.988H599.8v13.324h7.542Zm1.94-4.412A4.534,4.534,0,0,0,610.394,514a4.853,4.853,0,0,0,3.712,1.292,4.485,4.485,0,0,0,3.644-1.344,4.425,4.425,0,0,0,.986-2.925,3.389,3.389,0,0,0-.671-2.135,6.315,6.315,0,0,0-2.518-1.7,22.2,22.2,0,0,1-2.252-1.089,0.834,0.834,0,0,1-.43-0.723,0.934,0.934,0,0,1,.35-0.741,1.181,1.181,0,0,1,.762-0.287,1.588,1.588,0,0,1,.666.119,1.374,1.374,0,0,1,.6,1.137h3.384a4.625,4.625,0,0,0-.318-1.661,3.461,3.461,0,0,0-.76-1.186,4.513,4.513,0,0,0-3.276-1.292,5.365,5.365,0,0,0-3.382,1.107,3.585,3.585,0,0,0-1.431,3,3.132,3.132,0,0,0,.265,1.317,3.8,3.8,0,0,0,.6.993,4.329,4.329,0,0,0,.858.72,5.527,5.527,0,0,0,.819.473c0.194,0.081.372,0.157,0.536,0.227s0.527,0.215,1.089.453a8.622,8.622,0,0,1,1.273.636,0.862,0.862,0,0,1,.431.758,1.318,1.318,0,0,1-.359.871,1.135,1.135,0,0,1-.885.392,1.453,1.453,0,0,1-.982-0.4,1.79,1.79,0,0,1-.447-1.388h-3.384Zm21.612-.211,1.441-4.649,1.5,4.649H630.89Zm3.815,2.716,0.632,1.907h3.727l-5.115-13.324h-2.936l-5.273,13.324h3.691l0.615-1.907h4.659Zm9.843,1.907V501.711h-3.4v13.324h3.4Zm13.05,0V504.7h2.619v-2.988H651.56V504.7H654.2v10.336h3.4Zm7.962-9.4a3.3,3.3,0,0,1,2.672-1.178,3.167,3.167,0,0,1,2.646,1.231,4.292,4.292,0,0,1,.008,5.4,3.1,3.1,0,0,1-2.619,1.222,3.367,3.367,0,0,1-2.68-1.169,4.15,4.15,0,0,1-1-2.778v-0.017A4.06,4.06,0,0,1,665.56,505.631Zm-3.515,6.17a6.8,6.8,0,0,0,2.487,2.505,6.934,6.934,0,0,0,3.647.984,6.837,6.837,0,0,0,5.054-2.039,6.928,6.928,0,0,0-.009-9.756,6.774,6.774,0,0,0-5.027-2.03,7.185,7.185,0,0,0-3.437.844,6.729,6.729,0,0,0-2.584,2.469,7.068,7.068,0,0,0-.993,3.744v0.018A6.537,6.537,0,0,0,662.045,511.8Zm21.98-2.039a8.431,8.431,0,0,0,.263,2.373,4.558,4.558,0,0,0,1.072,1.731,4.823,4.823,0,0,0,3.736,1.424,5.077,5.077,0,0,0,3.823-1.441,4.369,4.369,0,0,0,1.011-1.609,7.711,7.711,0,0,0,.316-2.478v-8.051h-3.4v8.057a4.464,4.464,0,0,1-.211,1.672,1.422,1.422,0,0,1-1.459.862,1.511,1.511,0,0,1-1.512-.933,4.226,4.226,0,0,1-.237-1.6v-8.057h-3.4v8.051Zm21.418-8.051,0.079,8.121-5.121-8.121h-3.062v13.324h3.4l-0.071-8.024,5.067,8.024h2.773V501.711h-3.067Zm9.676,10.336V504.7H716.6a2.9,2.9,0,0,1,2.593,1.231,4.422,4.422,0,0,1,.651,2.461q-0.045,3.655-3.261,3.656h-1.459Zm1.265,2.988a8.967,8.967,0,0,0,3.191-.518,5.017,5.017,0,0,0,2.144-1.468,7.164,7.164,0,0,0,1.521-4.711,6.766,6.766,0,0,0-2.285-5.309,5,5,0,0,0-1.749-.949,10.071,10.071,0,0,0-3.076-.369h-4.413v13.324h4.667Zm16.945,0v-2.988h-4.14v-2.285h4.017v-2.989h-4.017V504.7h4.14v-2.988h-7.541v13.324h7.541Zm6.081,0V504.7h1.266a2.557,2.557,0,0,1,1.38.361,1.722,1.722,0,0,1,.791,1.555,2.077,2.077,0,0,1-.211.976,1.673,1.673,0,0,1-.545.659,4.069,4.069,0,0,1-2.048.36h-0.562l3.485,6.425h3.54l-2.751-4.895a4.017,4.017,0,0,0,1.833-1.477,4.128,4.128,0,0,0,.66-2.355,4.307,4.307,0,0,0-1.639-3.639,6.97,6.97,0,0,0-4.18-.958h-4.42v13.324h3.4Zm8.331-4.412A4.534,4.534,0,0,0,748.857,514a4.852,4.852,0,0,0,3.711,1.292,4.488,4.488,0,0,0,3.645-1.344,4.425,4.425,0,0,0,.986-2.925,3.383,3.383,0,0,0-.672-2.135,6.307,6.307,0,0,0-2.518-1.7,22.2,22.2,0,0,1-2.252-1.089,0.835,0.835,0,0,1-.429-0.723,0.931,0.931,0,0,1,.35-0.741,1.177,1.177,0,0,1,.762-0.287,1.583,1.583,0,0,1,.665.119,1.375,1.375,0,0,1,.605,1.137h3.383a4.625,4.625,0,0,0-.318-1.661,3.431,3.431,0,0,0-.76-1.186,4.51,4.51,0,0,0-3.276-1.292,5.364,5.364,0,0,0-3.381,1.107,3.584,3.584,0,0,0-1.432,3,3.147,3.147,0,0,0,.265,1.317,3.8,3.8,0,0,0,.6.993,4.349,4.349,0,0,0,.857.72,5.526,5.526,0,0,0,.82.473l0.536,0.227q0.246,0.1,1.089.453a8.673,8.673,0,0,1,1.273.636,0.861,0.861,0,0,1,.43.758,1.313,1.313,0,0,1-.359.871,1.131,1.131,0,0,1-.884.392,1.451,1.451,0,0,1-.982-0.4,1.79,1.79,0,0,1-.448-1.388h-3.383Zm16.77,4.412V504.7h2.619v-2.988h-8.658V504.7h2.637v10.336h3.4Zm7.716-4.623,1.441-4.649,1.494,4.649h-2.935Zm3.814,2.716,0.633,1.907H780.4l-5.115-13.324H772.35l-5.274,13.324h3.692l0.615-1.907h4.658Zm14.545-11.417,0.079,8.121-5.12-8.121h-3.062v13.324h3.4l-0.07-8.024,5.066,8.024h2.774V501.711h-3.068Zm9.676,10.336V504.7h1.477a2.9,2.9,0,0,1,2.593,1.231,4.43,4.43,0,0,1,.65,2.461q-0.043,3.655-3.261,3.656h-1.459Zm1.266,2.988a8.961,8.961,0,0,0,3.19-.518,5.021,5.021,0,0,0,2.145-1.468,7.164,7.164,0,0,0,1.52-4.711,6.763,6.763,0,0,0-2.285-5.309,4.983,4.983,0,0,0-1.749-.949,10.066,10.066,0,0,0-3.076-.369h-4.412v13.324h4.667Zm20.507,0,2.024-8.745,2.059,8.745H829.1l3.525-13.324h-3.437l-1.819,8.7-1.96-8.7h-2.6l-1.969,8.664-1.819-8.664h-3.454L819,515.035h3.035Zm16.229-5.326h4.36v5.326h3.4V501.711h-3.4v5.01h-4.36v-5.01h-3.4v13.324h3.4v-5.326Zm14.994,0.7,1.441-4.649,1.494,4.649h-2.935Zm3.814,2.716,0.633,1.907h3.726l-5.115-13.324h-2.935l-5.274,13.324H851.8l0.615-1.907h4.658Zm10.362,1.907V504.7h2.619v-2.988H861.4V504.7h2.636v10.336h3.4Zm5.685-8.824,1.908-4.5h-2.558l-1.512,4.5h2.162Zm4.639,4.412A4.53,4.53,0,0,0,878.875,514a4.852,4.852,0,0,0,3.711,1.292,4.485,4.485,0,0,0,3.644-1.344,4.42,4.42,0,0,0,.986-2.925,3.389,3.389,0,0,0-.671-2.135,6.315,6.315,0,0,0-2.518-1.7,22.2,22.2,0,0,1-2.252-1.089,0.834,0.834,0,0,1-.43-0.723,0.932,0.932,0,0,1,.351-0.741,1.177,1.177,0,0,1,.761-0.287,1.585,1.585,0,0,1,.666.119,1.374,1.374,0,0,1,.6,1.137h3.384a4.625,4.625,0,0,0-.318-1.661,3.446,3.446,0,0,0-.76-1.186,4.513,4.513,0,0,0-3.276-1.292,5.367,5.367,0,0,0-3.382,1.107,3.585,3.585,0,0,0-1.431,3,3.132,3.132,0,0,0,.265,1.317,3.8,3.8,0,0,0,.6.993,4.32,4.32,0,0,0,.857.72,5.475,5.475,0,0,0,.82.473l0.535,0.227q0.246,0.1,1.089.453a8.694,8.694,0,0,1,1.274.636,0.861,0.861,0,0,1,.43.758,1.318,1.318,0,0,1-.359.871,1.133,1.133,0,0,1-.885.392,1.448,1.448,0,0,1-.981-0.4,1.786,1.786,0,0,1-.448-1.388h-3.384Zm21.445,4.412V501.711h-3.4v13.324h3.4Zm11.232-13.324,0.079,8.121-5.12-8.121h-3.062v13.324h3.4l-0.07-8.024,5.066,8.024H913.5V501.711h-3.067Zm17.085,13.324v-4.843l3.946-8.481H927.81l-2,5.352-1.986-5.352h-3.691l3.981,8.481v4.843h3.4Zm8.665-9.4a3.3,3.3,0,0,1,2.672-1.178,3.164,3.164,0,0,1,2.645,1.231,4.294,4.294,0,0,1,.009,5.4,3.1,3.1,0,0,1-2.619,1.222,3.371,3.371,0,0,1-2.681-1.169,4.15,4.15,0,0,1-1-2.778v-0.017A4.061,4.061,0,0,1,936.185,505.631Zm-3.516,6.17a6.8,6.8,0,0,0,2.488,2.505,6.932,6.932,0,0,0,3.647.984,6.837,6.837,0,0,0,5.054-2.039,6.928,6.928,0,0,0-.009-9.756,6.774,6.774,0,0,0-5.027-2.03,7.185,7.185,0,0,0-3.437.844,6.723,6.723,0,0,0-2.584,2.469,7.068,7.068,0,0,0-.993,3.744v0.018A6.546,6.546,0,0,0,932.669,511.8Zm15.706-2.039a8.431,8.431,0,0,0,.263,2.373,4.549,4.549,0,0,0,1.073,1.731,4.821,4.821,0,0,0,3.735,1.424,5.077,5.077,0,0,0,3.823-1.441,4.369,4.369,0,0,0,1.011-1.609,7.711,7.711,0,0,0,.316-2.478v-8.051h-3.4v8.057a4.464,4.464,0,0,1-.211,1.672,1.422,1.422,0,0,1-1.459.862,1.511,1.511,0,0,1-1.512-.933,4.226,4.226,0,0,1-.237-1.6v-8.057h-3.4v8.051Zm16.716,5.273V504.7h1.265a2.557,2.557,0,0,1,1.38.361,1.72,1.72,0,0,1,.791,1.555,2.065,2.065,0,0,1-.211.976,1.665,1.665,0,0,1-.545.659,4.064,4.064,0,0,1-2.047.36h-0.563l3.485,6.425h3.54l-2.751-4.895a4.017,4.017,0,0,0,1.833-1.477,4.129,4.129,0,0,0,.661-2.355,4.308,4.308,0,0,0-1.64-3.639,6.97,6.97,0,0,0-4.18-.958h-4.42v13.324h3.4ZM488.28,523.7a3.737,3.737,0,0,1,1.407.2,1.363,1.363,0,0,1,.843,1.38,1.384,1.384,0,0,1-.808,1.389,3.307,3.307,0,0,1-1.31.2h-1.248V523.7h1.116Zm-4.517,10.336h3.4V529.86h1.364a8.063,8.063,0,0,0,2.361-.272,3.96,3.96,0,0,0,2.648-2.382,5.234,5.234,0,0,0,.4-2,4.3,4.3,0,0,0-1.587-3.524,4.118,4.118,0,0,0-1.506-.73,10.758,10.758,0,0,0-2.656-.246h-4.42v13.324Zm15.564-5.326h4.36v5.326h3.4V520.711h-3.4v5.01h-4.36v-5.01h-3.4v13.324h3.4v-5.326Zm14.7-4.078a3.3,3.3,0,0,1,2.672-1.178,3.164,3.164,0,0,1,2.645,1.231,4.294,4.294,0,0,1,.009,5.4,3.1,3.1,0,0,1-2.619,1.222,3.371,3.371,0,0,1-2.681-1.169,4.15,4.15,0,0,1-1-2.778v-0.017A4.066,4.066,0,0,1,514.022,524.631Zm-3.516,6.17a6.81,6.81,0,0,0,2.488,2.5,6.934,6.934,0,0,0,3.647.984,6.837,6.837,0,0,0,5.054-2.039,6.928,6.928,0,0,0-.009-9.756,6.774,6.774,0,0,0-5.027-2.03,7.185,7.185,0,0,0-3.437.844,6.729,6.729,0,0,0-2.584,2.469,7.068,7.068,0,0,0-.993,3.744v0.018A6.546,6.546,0,0,0,510.506,530.8Zm20.206,3.234V523.7h2.619v-2.988h-8.657V523.7h2.636v10.336h3.4Zm7.962-9.4a3.3,3.3,0,0,1,2.672-1.178,3.164,3.164,0,0,1,2.645,1.231,4.294,4.294,0,0,1,.009,5.4,3.1,3.1,0,0,1-2.619,1.222,3.371,3.371,0,0,1-2.681-1.169,4.15,4.15,0,0,1-1-2.778v-0.017A4.061,4.061,0,0,1,538.674,524.631Zm-3.516,6.17a6.8,6.8,0,0,0,2.488,2.5,6.932,6.932,0,0,0,3.647.984,6.837,6.837,0,0,0,5.054-2.039,6.928,6.928,0,0,0-.009-9.756,6.774,6.774,0,0,0-5.027-2.03,7.185,7.185,0,0,0-3.437.844,6.723,6.723,0,0,0-2.584,2.469,7.068,7.068,0,0,0-.993,3.744v0.018A6.546,6.546,0,0,0,535.158,530.8Zm15.257,0.176-1.151,4.5h2.47l1.8-4.5h-3.121Zm13.543,3.058V523.7h2.619v-2.988H557.92V523.7h2.637v10.336h3.4Zm8.094-5.326h4.359v5.326h3.4V520.711h-3.4v5.01h-4.359v-5.01h-3.4v13.324h3.4v-5.326Zm18.43,5.326v-2.988h-4.14v-2.285h4.017v-2.989h-4.017V523.7h4.14v-2.988h-7.541v13.324h7.541Zm10.783-13.324,0.08,8.121-5.121-8.121h-3.062v13.324h3.4l-0.07-8.024,5.066,8.024h2.774V520.711h-3.068ZM616.8,534.035l-0.114-10.489,3.032,10.489h2.109l2.883-9.975-0.114,9.975h2.988V520.711h-4.364l-2.4,8.437-2.461-8.437h-4.546v13.324H616.8Zm18.3-4.623,1.442-4.649,1.494,4.649H635.1Zm3.815,2.716,0.632,1.907h3.727l-5.115-13.324h-2.936l-5.273,13.324h3.691l0.615-1.907h4.659Zm10.2,1.907v-5.757l3.674,5.757h4.14l-4.843-6.7,4.394-6.627h-3.568l-3.8,5.994v-5.994h-3.4v13.324h3.4Zm17.217,0v-2.988H662.2v-2.285h4.017v-2.989H662.2V523.7h4.14v-2.988H658.8v13.324h7.541Zm1.941-4.412A4.534,4.534,0,0,0,669.393,533a4.852,4.852,0,0,0,3.711,1.292,4.488,4.488,0,0,0,3.645-1.344,4.425,4.425,0,0,0,.986-2.925,3.383,3.383,0,0,0-.672-2.135,6.31,6.31,0,0,0-2.517-1.7,22.147,22.147,0,0,1-2.253-1.089,0.835,0.835,0,0,1-.429-0.723,0.931,0.931,0,0,1,.35-0.741,1.179,1.179,0,0,1,.762-0.287,1.583,1.583,0,0,1,.665.119,1.375,1.375,0,0,1,.605,1.137h3.383a4.6,4.6,0,0,0-.318-1.661,3.431,3.431,0,0,0-.76-1.186,4.51,4.51,0,0,0-3.276-1.292,5.364,5.364,0,0,0-3.381,1.107,3.584,3.584,0,0,0-1.432,3,3.147,3.147,0,0,0,.265,1.317,3.8,3.8,0,0,0,.6.993,4.349,4.349,0,0,0,.857.72,5.577,5.577,0,0,0,.82.473l0.536,0.227q0.246,0.1,1.089.453a8.673,8.673,0,0,1,1.273.636,0.861,0.861,0,0,1,.43.758,1.308,1.308,0,0,1-.359.871,1.131,1.131,0,0,1-.884.392,1.451,1.451,0,0,1-.982-0.4,1.79,1.79,0,0,1-.447-1.388h-3.384Zm21.612-.211,1.441-4.649,1.494,4.649h-2.935Zm3.814,2.716,0.633,1.907h3.727l-5.116-13.324h-2.935l-5.274,13.324h3.692l0.615-1.907H693.7Zm11.977-2.5A4.534,4.534,0,0,0,706.8,533a4.853,4.853,0,0,0,3.712,1.292,4.485,4.485,0,0,0,3.644-1.344,4.42,4.42,0,0,0,.986-2.925,3.389,3.389,0,0,0-.671-2.135,6.315,6.315,0,0,0-2.518-1.7A22.2,22.2,0,0,1,709.7,525.1a0.834,0.834,0,0,1-.43-0.723,0.932,0.932,0,0,1,.351-0.741,1.177,1.177,0,0,1,.761-0.287,1.588,1.588,0,0,1,.666.119,1.374,1.374,0,0,1,.6,1.137h3.384a4.625,4.625,0,0,0-.318-1.661,3.461,3.461,0,0,0-.76-1.186,4.513,4.513,0,0,0-3.276-1.292,5.365,5.365,0,0,0-3.382,1.107,3.585,3.585,0,0,0-1.431,3,3.132,3.132,0,0,0,.265,1.317,3.777,3.777,0,0,0,.6.993,4.292,4.292,0,0,0,.857.72,5.527,5.527,0,0,0,.819.473c0.194,0.081.372,0.157,0.536,0.227s0.527,0.215,1.089.453a8.694,8.694,0,0,1,1.274.636,0.863,0.863,0,0,1,.43.758,1.318,1.318,0,0,1-.359.871,1.135,1.135,0,0,1-.885.392,1.448,1.448,0,0,1-.981-0.4,1.786,1.786,0,0,1-.448-1.388H705.68Zm16.77,4.412V523.7h2.619v-2.988h-8.657V523.7h2.637v10.336h3.4Zm8.094,0V523.7h1.266a2.557,2.557,0,0,1,1.38.361,1.722,1.722,0,0,1,.791,1.555,2.089,2.089,0,0,1-.211.976,1.682,1.682,0,0,1-.545.659,4.069,4.069,0,0,1-2.048.36h-0.563l3.486,6.425h3.539l-2.751-4.895a4.02,4.02,0,0,0,1.834-1.477,4.128,4.128,0,0,0,.66-2.355,4.308,4.308,0,0,0-1.64-3.639,6.968,6.968,0,0,0-4.179-.958h-4.42v13.324h3.4Zm13.174-4.623,1.442-4.649,1.494,4.649h-2.936Zm3.815,2.716,0.632,1.907h3.727l-5.115-13.324h-2.936l-5.273,13.324h3.691l0.615-1.907h4.659Zm14.545-11.417,0.079,8.121-5.121-8.121h-3.062v13.324h3.4l-0.071-8.024,5.067,8.024h2.773V520.711h-3.067Zm10.221,3.762a3.609,3.609,0,0,1,2.513-1.02,3.192,3.192,0,0,1,2.936,1.723h3.814a6.162,6.162,0,0,0-2.434-3.34,6.989,6.989,0,0,0-4.219-1.371,7.112,7.112,0,0,0-5.062,1.951,6.433,6.433,0,0,0-2.066,4.878,6.761,6.761,0,0,0,2.039,4.966,6.875,6.875,0,0,0,5.036,2.048,7.624,7.624,0,0,0,5.239-2.18,6.478,6.478,0,0,0,1.239-1.855,7.8,7.8,0,0,0,.606-3.814h-7.9v2.716h3.982a2.571,2.571,0,0,1-1.1,1.547,3.716,3.716,0,0,1-2.18.6,3.533,3.533,0,0,1-2.443-1.028A4.349,4.349,0,0,1,772.3,524.473Zm19.678,9.562v-2.988h-4.14v-2.285h4.017v-2.989h-4.017V523.7h4.14v-2.988h-7.541v13.324h7.541ZM805.449,523.7a3.728,3.728,0,0,1,1.406.2,1.362,1.362,0,0,1,.844,1.38,1.385,1.385,0,0,1-.809,1.389,3.3,3.3,0,0,1-1.309.2h-1.248V523.7h1.116Zm-4.518,10.336h3.4V529.86H805.7a8.068,8.068,0,0,0,2.361-.272,3.956,3.956,0,0,0,2.647-2.382,5.215,5.215,0,0,0,.395-2,4.3,4.3,0,0,0-1.586-3.524,4.118,4.118,0,0,0-1.506-.73,10.764,10.764,0,0,0-2.656-.246h-4.421v13.324Zm15.97-9.4a3.3,3.3,0,0,1,2.671-1.178,3.167,3.167,0,0,1,2.646,1.231,4.294,4.294,0,0,1,.009,5.4,3.1,3.1,0,0,1-2.619,1.222,3.369,3.369,0,0,1-2.681-1.169,4.15,4.15,0,0,1-1-2.778v-0.017A4.056,4.056,0,0,1,816.9,524.631Zm-3.516,6.17a6.8,6.8,0,0,0,2.487,2.5,6.938,6.938,0,0,0,3.648.984,6.835,6.835,0,0,0,5.053-2.039,6.929,6.929,0,0,0-.008-9.756,6.775,6.775,0,0,0-5.028-2.03,7.181,7.181,0,0,0-3.436.844,6.723,6.723,0,0,0-2.584,2.469,7.068,7.068,0,0,0-.993,3.744v0.018A6.546,6.546,0,0,0,813.385,530.8Zm15-1.178A4.534,4.534,0,0,0,829.5,533a4.853,4.853,0,0,0,3.712,1.292,4.485,4.485,0,0,0,3.644-1.344,4.425,4.425,0,0,0,.986-2.925,3.389,3.389,0,0,0-.671-2.135,6.315,6.315,0,0,0-2.518-1.7A22.264,22.264,0,0,1,832.4,525.1a0.835,0.835,0,0,1-.429-0.723,0.934,0.934,0,0,1,.35-0.741,1.181,1.181,0,0,1,.762-0.287,1.588,1.588,0,0,1,.666.119,1.374,1.374,0,0,1,.6,1.137h3.384a4.6,4.6,0,0,0-.319-1.661,3.444,3.444,0,0,0-.759-1.186,4.513,4.513,0,0,0-3.276-1.292A5.365,5.365,0,0,0,830,521.572a3.585,3.585,0,0,0-1.431,3,3.132,3.132,0,0,0,.265,1.317,3.776,3.776,0,0,0,.6.993,4.349,4.349,0,0,0,.857.72,5.577,5.577,0,0,0,.82.473c0.194,0.081.372,0.157,0.536,0.227s0.527,0.215,1.089.453a8.622,8.622,0,0,1,1.273.636,0.862,0.862,0,0,1,.431.758,1.318,1.318,0,0,1-.359.871,1.135,1.135,0,0,1-.885.392,1.453,1.453,0,0,1-.982-0.4,1.79,1.79,0,0,1-.447-1.388h-3.384Zm16.77,4.412V523.7h2.619v-2.988h-8.657V523.7h2.637v10.336h3.4Zm12.234,0v-2.988h-4.14v-2.285h4.017v-2.989H853.25V523.7h4.14v-2.988h-7.541v13.324h7.541Zm6.081,0V523.7h1.266a2.551,2.551,0,0,1,1.379.361,1.72,1.72,0,0,1,.791,1.555,2.077,2.077,0,0,1-.21.976,1.682,1.682,0,0,1-.545.659,4.071,4.071,0,0,1-2.048.36h-0.563l3.486,6.425h3.539l-2.751-4.895a4.02,4.02,0,0,0,1.834-1.477,4.128,4.128,0,0,0,.66-2.355,4.308,4.308,0,0,0-1.64-3.639,6.968,6.968,0,0,0-4.179-.958h-4.42v13.324h3.4Zm19.15-9.4a3.3,3.3,0,0,1,2.672-1.178,3.164,3.164,0,0,1,2.645,1.231,4.294,4.294,0,0,1,.009,5.4,3.1,3.1,0,0,1-2.619,1.222,3.371,3.371,0,0,1-2.681-1.169,4.15,4.15,0,0,1-1-2.778v-0.017A4.061,4.061,0,0,1,882.621,524.631Zm-3.516,6.17a6.8,6.8,0,0,0,2.488,2.5,6.932,6.932,0,0,0,3.647.984,6.837,6.837,0,0,0,5.054-2.039,6.928,6.928,0,0,0-.009-9.756,6.774,6.774,0,0,0-5.027-2.03,7.185,7.185,0,0,0-3.437.844,6.723,6.723,0,0,0-2.584,2.469,7.068,7.068,0,0,0-.993,3.744v0.018A6.546,6.546,0,0,0,879.105,530.8Zm15.706-2.039a8.468,8.468,0,0,0,.263,2.373,4.549,4.549,0,0,0,1.073,1.731,4.821,4.821,0,0,0,3.735,1.424,5.076,5.076,0,0,0,3.823-1.441,4.369,4.369,0,0,0,1.011-1.609,7.711,7.711,0,0,0,.316-2.478v-8.051h-3.4v8.057a4.464,4.464,0,0,1-.211,1.672,1.422,1.422,0,0,1-1.459.862,1.512,1.512,0,0,1-1.512-.933,4.226,4.226,0,0,1-.237-1.6v-8.057h-3.4v8.051Zm18.315,5.273V523.7h2.619v-2.988h-8.657V523.7h2.637v10.336h3.4Zm14.773-9.4a3.3,3.3,0,0,1,2.672-1.178,3.167,3.167,0,0,1,2.646,1.231,4.294,4.294,0,0,1,.009,5.4,3.1,3.1,0,0,1-2.62,1.222,3.367,3.367,0,0,1-2.68-1.169,4.15,4.15,0,0,1-1-2.778v-0.017A4.06,4.06,0,0,1,927.9,524.631Zm-3.515,6.17a6.8,6.8,0,0,0,2.487,2.5,6.937,6.937,0,0,0,3.647.984,6.836,6.836,0,0,0,5.054-2.039,6.928,6.928,0,0,0-.009-9.756,6.773,6.773,0,0,0-5.027-2.03,7.181,7.181,0,0,0-3.436.844,6.723,6.723,0,0,0-2.584,2.469,7.06,7.06,0,0,0-.994,3.744v0.018A6.537,6.537,0,0,0,924.384,530.8Zm19.142,3.234v-5.08h3.726v-2.988h-3.726V523.7H947.4v-2.988h-7.278v13.324h3.4Zm16.1,0V520.711h-3.4v13.324h3.4Zm8.129,0V523.7h2.619v-2.988h-8.657V523.7h2.637v10.336h3.4Zm2.961-2.988v2.988H973.7v-2.988h-2.988Z" transform="translate(-482.875 -501.469)"/>
</svg>
