<svg xmlns="http://www.w3.org/2000/svg" xmlns:xlink="http://www.w3.org/1999/xlink" width="838" height="322" viewBox="0 0 838 322">
  <metadata><?xpacket begin="﻿" id="W5M0MpCehiHzreSzNTczkc9d"?>
<x:xmpmeta xmlns:x="adobe:ns:meta/" x:xmptk="Adobe XMP Core 5.6-c138 79.159824, 2016/09/14-01:09:01        ">
   <rdf:RDF xmlns:rdf="http://www.w3.org/1999/02/22-rdf-syntax-ns#">
      <rdf:Description rdf:about=""/>
   </rdf:RDF>
</x:xmpmeta>
                                                                                                    
                                                                                                    
                                                                                                    
                                                                                                    
                                                                                                    
                                                                                                    
                                                                                                    
                                                                                                    
                                                                                                    
                                                                                                    
                                                                                                    
                                                                                                    
                                                                                                    
                                                                                                    
                                                                                                    
                                                                                                    
                                                                                                    
                                                                                                    
                                                                                                    
                                                                                                    
                           
<?xpacket end="w"?></metadata>
<defs>
    <style>
      .cls-1, .cls-2, .cls-3, .cls-4, .cls-5, .cls-6, .cls-7 {
        stroke: #ff0007;
        stroke-linejoin: round;
        stroke-width: 2px;
      }

      .cls-1, .cls-2, .cls-3 {
        fill-rule: evenodd;
      }

      .cls-1 {
        filter: url(#filter);
      }

      .cls-2 {
        filter: url(#filter-2);
      }

      .cls-3 {
        filter: url(#filter-3);
      }

      .cls-4 {
        filter: url(#filter-4);
      }

      .cls-5 {
        filter: url(#filter-5);
      }

      .cls-6 {
        filter: url(#filter-6);
      }

      .cls-7 {
        filter: url(#filter-7);
      }
    </style>
    <filter id="filter" x="5" y="86" width="823" height="146" filterUnits="userSpaceOnUse">
      <feGaussianBlur result="blur" stdDeviation="3.333" in="SourceAlpha"/>
      <feComposite result="composite"/>
      <feComposite result="composite-2"/>
      <feComposite result="composite-3"/>
      <feFlood result="flood" flood-color="#d71500" flood-opacity="0.76"/>
      <feComposite result="composite-4" operator="in" in2="composite-3"/>
      <feBlend result="blend" in2="SourceGraphic"/>
      <feBlend result="blend-2" in="SourceGraphic"/>
    </filter>
    <filter id="filter-2" x="151" y="203" width="541" height="120" filterUnits="userSpaceOnUse">
      <feGaussianBlur result="blur" stdDeviation="3.333" in="SourceAlpha"/>
      <feComposite result="composite"/>
      <feComposite result="composite-2"/>
      <feComposite result="composite-3"/>
      <feFlood result="flood" flood-color="#d71500" flood-opacity="0.76"/>
      <feComposite result="composite-4" operator="in" in2="composite-3"/>
      <feBlend result="blend" in2="SourceGraphic"/>
      <feBlend result="blend-2" in="SourceGraphic"/>
    </filter>
    <filter id="filter-3" x="284" y="0" width="270" height="90" filterUnits="userSpaceOnUse">
      <feGaussianBlur result="blur" stdDeviation="3.333" in="SourceAlpha"/>
      <feComposite result="composite"/>
      <feComposite result="composite-2"/>
      <feComposite result="composite-3"/>
      <feFlood result="flood" flood-color="#d71500" flood-opacity="0.76"/>
      <feComposite result="composite-4" operator="in" in2="composite-3"/>
      <feBlend result="blend" in2="SourceGraphic"/>
      <feBlend result="blend-2" in="SourceGraphic"/>
    </filter>
    <filter id="filter-4" x="0" y="55" width="285" height="33" filterUnits="userSpaceOnUse">
      <feGaussianBlur result="blur" stdDeviation="3.333" in="SourceAlpha"/>
      <feComposite result="composite"/>
      <feComposite result="composite-2"/>
      <feComposite result="composite-3"/>
      <feFlood result="flood" flood-color="#d71500" flood-opacity="0.76"/>
      <feComposite result="composite-4" operator="in" in2="composite-3"/>
      <feBlend result="blend" in2="SourceGraphic"/>
      <feBlend result="blend-2" in="SourceGraphic"/>
    </filter>
    <filter id="filter-5" x="553" y="54" width="285" height="33" filterUnits="userSpaceOnUse">
      <feGaussianBlur result="blur" stdDeviation="3.333" in="SourceAlpha"/>
      <feComposite result="composite"/>
      <feComposite result="composite-2"/>
      <feComposite result="composite-3"/>
      <feFlood result="flood" flood-color="#d71500" flood-opacity="0.76"/>
      <feComposite result="composite-4" operator="in" in2="composite-3"/>
      <feBlend result="blend" in2="SourceGraphic"/>
      <feBlend result="blend-2" in="SourceGraphic"/>
    </filter>
    <filter id="filter-6" x="0" y="230" width="152" height="33" filterUnits="userSpaceOnUse">
      <feGaussianBlur result="blur" stdDeviation="3.333" in="SourceAlpha"/>
      <feComposite result="composite"/>
      <feComposite result="composite-2"/>
      <feComposite result="composite-3"/>
      <feFlood result="flood" flood-color="#d71500" flood-opacity="0.76"/>
      <feComposite result="composite-4" operator="in" in2="composite-3"/>
      <feBlend result="blend" in2="SourceGraphic"/>
      <feBlend result="blend-2" in="SourceGraphic"/>
    </filter>
    <filter id="filter-7" x="686" y="230" width="152" height="33" filterUnits="userSpaceOnUse">
      <feGaussianBlur result="blur" stdDeviation="3.333" in="SourceAlpha"/>
      <feComposite result="composite"/>
      <feComposite result="composite-2"/>
      <feComposite result="composite-3"/>
      <feFlood result="flood" flood-color="#d71500" flood-opacity="0.76"/>
      <feComposite result="composite-4" operator="in" in2="composite-3"/>
      <feBlend result="blend" in2="SourceGraphic"/>
      <feBlend result="blend-2" in="SourceGraphic"/>
    </filter>
  </defs>
  <g style="fill: ; filter: url(#filter)">
    <path id="Stranger" class="cls-1" d="M54.007,115.3a27.354,27.354,0,0,1,15.179-4.11q8.819,0,19.226,6.44a43.689,43.689,0,0,1,16.329,18.642l2.464-.593-6.124-37.233a12.244,12.244,0,0,1-9.172,3.728q-0.759.087-10.086-1.82a92.492,92.492,0,0,0-18.572-1.908A47.073,47.073,0,0,0,44.995,102.2q-9.012,3.761-13.733,9.568-9.528,11.532-9.528,22.72,0,20.459,25.778,28.337l25.21,7.628a60.423,60.423,0,0,1,13.757,5.613q6.878,3.913,6.878,12.246t-9.208,13.522a40.942,40.942,0,0,1-20.461,5.188q-17.051.085-28.475-9.744T19.44,170.929l-2.379.508,7.514,47.4q3.873-3.824,7.4-3.823t14.206,2.379a103.909,103.909,0,0,0,22.578,2.379,61.646,61.646,0,0,0,22.694-4.241q10.821-4.239,16.569-10.94,11.242-13.312,11.244-27.222-0.067-23.16-29.159-31.742L63.221,137.7q-4.249-1.258-6.912-2.265a20.272,20.272,0,0,1-5.664-3.774,8.2,8.2,0,0,1-3-6.291q0-6.038,6.36-10.066h0Zm122.166-4.576q11.1,0.588,17.757,4.768t11.687,14.37l1.766-.392-6.467-29.739a5.321,5.321,0,0,1-2.489,1.7,28.468,28.468,0,0,1-5.568.327H138.3a21.928,21.928,0,0,1-5.044-.393,4.892,4.892,0,0,1-2.489-1.636l-6.019,29.739,1.766,0.392a41.089,41.089,0,0,1,1.7-4.572,22.8,22.8,0,0,1,3.6-4.834q7.785-8.686,24.405-9.732v62.9q0.064,8.429-1.744,11.563t-8.266,3.265v2.683H186.38v-2.683q-6.72-.131-8.463-3.2t-1.744-11.627v-62.9ZM241.08,115.5a6.069,6.069,0,0,1,5.038-5.3,47.379,47.379,0,0,1,8.44-.523,21.4,21.4,0,0,1,10.665,2.682Q270,115.042,270,121.323q0,6.218-5.889,10.273-2.88,1.962-6.674,4.318-3.729,2.355-16.554,5.365V120.146a38.5,38.5,0,0,1,.2-4.646h0Zm62.943,72.954a9.487,9.487,0,0,1-3.931-1.439q-3.013-2.356-8.057-15.311a191.025,191.025,0,0,0-9.761-18.582,135.219,135.219,0,0,0-10.744-13.74q18.425-9.748,18.426-23.031a14.371,14.371,0,0,0-4.42-10.142q-4.355-4.449-18.717-4.449h-54.07v2.682q5.3,1.049,6.739,3.8t1.439,11.058V173.6q0.065,8.31-1.374,11.123t-6.8,3.729v2.683h37.1v-2.683q-5.825-.653-7.393-3.664T240.883,173.6v-23.49q10.011-2.812,11.516-3.206A207.051,207.051,0,0,1,265.032,163.4a72.907,72.907,0,0,1,6.512,11.842q2.343,5.562,2.344,8.768,0,4.058-5.263,4.449v2.683h35.4v-2.683ZM359.7,153.161a39.266,39.266,0,0,0-24.013-8.152l10.861-27.677Zm38.6,35.293q-3.861-.915-5.431-3.141t-4.383-10.01l-20.48-57.186a31.74,31.74,0,0,1-1.5-4.776,25.4,25.4,0,0,1-.916-4.449,4.24,4.24,0,0,1,3.6-4.45V101.76H335.3v2.682q3.664,0.656,3.664,4.253,0,2.292-2.028,7.394l-21.592,55.223q-3.729,9.225-6.15,12.627a11.582,11.582,0,0,1-7,4.515v2.683h28.593v-2.683q-7.263-.782-7.263-6.257a24.323,24.323,0,0,1,2.159-9.059l7.067-17.922q14.982,0.456,25.059,7.886t10.076,17.336q-0.066,6.845-6.87,8.016v2.683h37.3v-2.683Zm72.169-52.147-25.19-25.191q-2.683-2.616-2.683-4.122,0-1.9,2.683-2.552V101.76H403.607v2.682q5.167,1.179,6.608,3.861t1.44,10.992V173.6q-0.066,8.31-1.5,11.057t-6.543,3.8v2.683h26.368v-2.683q-4.907-1.308-6.347-3.86T422.254,173.6V115.3l44.754,41.548q3.468,3.336,3.468,9.749v7q0,8.376-1.439,10.861t-6.216,3.991v2.683h26.826v-2.683q-5.3-.915-6.739-3.729t-1.44-11.123V119.3q-0.066-8.178,1.44-10.992t6.739-3.861V101.76H462.821v2.682a14.913,14.913,0,0,1,4.842,2.225q2.813,2.291,2.813,12.628v17.012ZM527.662,166.6a45.9,45.9,0,0,1-6.936-24.667,36.612,36.612,0,0,1,7.786-23.359,25,25,0,0,1,20.545-9.88q12.693,0,23.031,9.488,3.272,2.944,6.936,10.534l1.832-.458-4.515-29.574a7.8,7.8,0,0,1-6.87,3.6q-1.047,0-9.88-1.308a92.345,92.345,0,0,0-13.805-1.244,55.022,55.022,0,0,0-31.341,9.095,32.4,32.4,0,0,0-11.189,13.282,45.884,45.884,0,0,0-4.122,20.087q0,15.966,7.917,27.219a47.049,47.049,0,0,0,9.553,10.338A54.084,54.084,0,0,0,526.68,186.3q10.4,4.842,28.2,4.842h40.436v-2.683q-4.581-1.308-5.692-3.533t-1.113-10.4V151.486q0-7.915,1.178-10.6t6.347-3.468v-2.683H559.984v2.683q5.56,0.785,7.066,3.729t1.5,11.123v17.274a20.3,20.3,0,0,1-1.766,8.767q-2.292,4.908-12.432,4.908-16.227,0-26.695-16.619h0ZM677.757,193.3l11.516-35-1.9-.916a60.436,60.436,0,0,1-11.908,15.507,38.591,38.591,0,0,1-26.695,10.338q-9.75,0-12.105-4.057a12.266,12.266,0,0,1-1.635-4.318,41,41,0,0,1-.327-5.954v-31.21h7.262q10.86,0,15.507,4.449a24.585,24.585,0,0,1,3.926,4.58q1.308,2.094,3.206,5.954l1.832-.393-5.627-33.107-1.832.265q-0.132,6.1-2.944,8.215t-10.469,2.12H634.705v-8.419q0-6.1,2.42-8.883t9.946-2.785q22.18,0,32.518,20.987l1.9-.772-6.412-30.161q-2.423,2.029-7.263,2.029H606.7v2.682q5.167,1.049,6.608,3.8t1.44,11.058V173.6q0.063,8.31-1.374,11.057t-6.674,3.8v2.683h65.822a6.484,6.484,0,0,1,5.234,2.159h0Zm56.461-74.374q1.1-5.776,6.542-6.882a61.41,61.41,0,0,1,10.96-.68,27.792,27.792,0,0,1,13.849,3.484q6.2,3.485,6.2,11.639,0,8.073-7.646,13.339-3.741,2.548-8.667,5.608-4.842,3.058-21.5,6.966V124.954a50.038,50.038,0,0,1,.255-6.032h0Zm81.733,94.731a12.308,12.308,0,0,1-5.105-1.869q-3.912-3.058-10.462-19.881-8.337-17.415-12.675-24.129a175.522,175.522,0,0,0-13.951-17.841q23.925-12.659,23.926-29.907a18.658,18.658,0,0,0-5.739-13.169q-5.655-5.776-24.3-5.777H697.43v3.483q6.882,1.36,8.751,4.928t1.869,14.359v70.517q0.084,10.791-1.784,14.444t-8.836,4.842v3.484H745.6v-3.484q-7.563-.847-9.6-4.757t-2.039-14.529v-30.5q13-3.651,14.954-4.163a269.245,269.245,0,0,1,16.4,21.41,94.825,94.825,0,0,1,8.456,15.378q3.042,7.222,3.044,11.385,0,5.27-6.834,5.777v3.484h45.964v-3.484Z" style="stroke: inherit; filter: none; fill: inherit"/>
  </g>
  <use xlink:href="#Stranger" style="stroke: #ff0007; filter: none; fill: none"/>
  <g style="fill: ; filter: url(#filter-2)">
    <path id="things" class="cls-2" d="M214.994,227.724q11.1,0.588,17.757,4.768t11.687,14.37l1.766-.392-6.467-29.739a5.317,5.317,0,0,1-2.49,1.7,28.448,28.448,0,0,1-5.567.327H177.119a21.938,21.938,0,0,1-5.045-.393,4.888,4.888,0,0,1-2.488-1.636l-6.02,29.739,1.767,0.392a40.889,40.889,0,0,1,1.7-4.572,22.8,22.8,0,0,1,3.6-4.834q7.785-8.686,24.405-9.732v62.9q0.064,8.429-1.744,11.563t-8.267,3.265v2.683H225.2v-2.683q-6.72-.13-8.463-3.2t-1.744-11.627v-62.9Zm99.846,23.751V290.6q0.065,8.31-1.5,11.253t-7.328,3.6v2.683h37.1v-2.683q-5.432-.915-6.87-3.8T334.8,290.6V236.3q-0.066-8.178,1.439-11.058t6.87-3.795V218.76h-37.1v2.682q5.693,0.66,7.263,3.62t1.57,11.321v7.175H279.7v-7.175q0-8.226,1.57-11.189t7.132-3.752V218.76H251.7v2.682q5.168,1.048,6.609,3.795t1.439,11.058V290.6q0.065,8.31-1.374,11.057t-6.674,3.8v2.683h36.706v-2.683q-5.562-.785-7.132-3.729T279.7,290.6V251.475H314.84Zm75.767,53.979q-5.3-1.046-6.739-3.8T382.429,290.6V236.3q0-8.178,1.439-10.992t6.739-3.861V218.76H354.163v2.682q5.43,0.918,6.87,3.73t1.44,11.123V290.6q0.065,8.31-1.374,11.123t-6.936,3.729v2.683h36.444v-2.683Zm77.862-52.147-25.191-25.191q-2.684-2.616-2.682-4.122,0-1.9,2.682-2.552V218.76H401.6v2.682q5.168,1.179,6.608,3.861t1.439,10.992V290.6q-0.065,8.31-1.5,11.057t-6.543,3.8v2.683h26.368v-2.683q-4.908-1.308-6.347-3.86T420.247,290.6V232.3L465,273.852q3.467,3.336,3.468,9.749v7q0,8.376-1.44,10.861t-6.216,3.991v2.683H487.64v-2.683q-5.3-.915-6.74-3.729T479.461,290.6V236.3Q479.4,228.117,480.9,225.3t6.74-3.861V218.76H460.813v2.682a14.9,14.9,0,0,1,4.842,2.225q2.813,2.29,2.814,12.628v17.012ZM525.654,283.6a45.9,45.9,0,0,1-6.935-24.667,36.606,36.606,0,0,1,7.786-23.359,24.994,24.994,0,0,1,20.545-9.88q12.693,0,23.031,9.488,3.271,2.945,6.936,10.534l1.832-.458-4.515-29.574a7.8,7.8,0,0,1-6.87,3.6q-1.047,0-9.88-1.308a92.488,92.488,0,0,0-13.806-1.244,55.028,55.028,0,0,0-31.34,9.095,32.4,32.4,0,0,0-11.189,13.282,45.884,45.884,0,0,0-4.122,20.087q0,15.966,7.917,27.219a47.049,47.049,0,0,0,9.553,10.338,54.084,54.084,0,0,0,10.076,6.543q10.4,4.842,28.2,4.842h40.436v-2.683q-4.581-1.308-5.693-3.533t-1.112-10.4V268.486q0-7.915,1.178-10.6t6.346-3.468v-2.683H557.977v2.683q5.56,0.785,7.066,3.729t1.5,11.123v17.274a20.282,20.282,0,0,1-1.767,8.767q-2.29,4.908-12.431,4.908-16.229,0-26.7-16.619h0Zm104.024-53.89a21.07,21.07,0,0,1,11.69-3.165q6.792,0,14.806,4.959a33.647,33.647,0,0,1,12.575,14.357l1.9-.457-4.716-28.674a9.426,9.426,0,0,1-7.063,2.871,74.81,74.81,0,0,1-7.768-1.4,71.178,71.178,0,0,0-14.3-1.47,36.246,36.246,0,0,0-14.059,2.9,26.351,26.351,0,0,0-10.576,7.368q-7.338,8.88-7.338,17.5,0,15.756,19.852,21.823l19.414,5.874a46.492,46.492,0,0,1,10.595,4.323,10.09,10.09,0,0,1,5.3,9.431q0,6.418-7.09,10.413a31.532,31.532,0,0,1-15.758,4q-13.131.066-21.929-7.5t-12.146-20.3l-1.832.392,5.786,36.5q2.982-2.944,5.7-2.944t10.94,1.832a79.994,79.994,0,0,0,17.388,1.832,47.491,47.491,0,0,0,17.476-3.265q8.334-3.265,12.76-8.425,8.658-10.254,8.66-20.964-0.052-17.837-22.456-24.446l-20.708-6.107q-3.272-.969-5.323-1.744a15.6,15.6,0,0,1-4.362-2.907,6.315,6.315,0,0,1-2.309-4.845q0-4.648,4.9-7.751h0Z" style="stroke: inherit; filter: none; fill: inherit"/>
  </g>
  <use xlink:href="#things" style="stroke: #ff0007; filter: none; fill: none"/>
  <g style="fill: ; filter: url(#filter-3)">
    <path id="Even" class="cls-3" d="M346.228,77.651L354.306,53.1l-1.331-.643a42.411,42.411,0,0,1-8.354,10.878A27.069,27.069,0,0,1,325.9,70.583q-6.84,0-8.492-2.846a8.628,8.628,0,0,1-1.147-3.029,28.686,28.686,0,0,1-.23-4.177V38.638h5.095q7.619,0,10.878,3.121a17.262,17.262,0,0,1,2.754,3.213q0.918,1.469,2.249,4.177l1.285-.275L334.34,25.648l-1.285.186q-0.093,4.276-2.066,5.763t-7.343,1.487h-7.62V27.178q0-4.278,1.7-6.231t6.976-1.953q15.559,0,22.812,14.723l1.331-.541-4.5-21.158a7.786,7.786,0,0,1-5.1,1.423H296.382v1.882q3.625,0.735,4.636,2.662t1.009,7.757v38.1q0.045,5.829-.964,7.757t-4.681,2.662v1.882h46.174a4.551,4.551,0,0,1,3.672,1.515h0Zm55.583-53.7L390.264,54.886a43.63,43.63,0,0,0-2.222,8.078,49.7,49.7,0,0,0-2.131-9.868l-9.88-29.421a15.581,15.581,0,0,1-.963-4.636,3.128,3.128,0,0,1,1.009-2.57,6.622,6.622,0,0,1,3.213-1.148V13.44H353.663v1.882a6.866,6.866,0,0,1,4.223,2.524q1.33,1.883,3.3,7.8l14.78,41.859a12.734,12.734,0,0,1,.826,3.764q0.045,2.8-3.167,2.983v1.882h21.71V74.255q-3.4-.275-3.4-3.947a17.963,17.963,0,0,1,1.515-5.37l15.514-39.105a43.894,43.894,0,0,1,3.442-7.94,7.43,7.43,0,0,1,3.947-2.57V13.44H398.919v1.882q4.222,0.551,4.223,3.764a16.634,16.634,0,0,1-1.331,4.865h0Zm67.378,53.7L477.268,53.1l-1.331-.643a42.411,42.411,0,0,1-8.354,10.878,27.069,27.069,0,0,1-18.727,7.252q-6.838,0-8.491-2.846a8.628,8.628,0,0,1-1.147-3.029,28.686,28.686,0,0,1-.23-4.177V38.638h5.1q7.618,0,10.878,3.121a17.3,17.3,0,0,1,2.754,3.213q0.918,1.469,2.249,4.177l1.285-.275L457.3,25.648l-1.285.186q-0.093,4.276-2.066,5.763t-7.344,1.487h-7.619V27.178q0-4.278,1.7-6.231t6.976-1.953q15.559,0,22.812,14.723l1.331-.541-4.5-21.158a7.786,7.786,0,0,1-5.095,1.423H419.344v1.882q3.626,0.735,4.635,2.662t1.01,7.757v38.1q0.045,5.829-.964,7.757t-4.681,2.662v1.882h46.174a4.549,4.549,0,0,1,3.671,1.515h0Zm59.347-39.978L510.865,20q-1.882-1.835-1.882-2.892,0-1.331,1.882-1.79V13.44H481.628v1.882q3.626,0.826,4.636,2.708t1.009,7.711v38.1q-0.045,5.829-1.055,7.757t-4.59,2.662v1.882h18.5V74.255q-3.442-.918-4.452-2.708t-0.964-7.711V22.94l31.4,29.146q2.431,2.341,2.432,6.839v4.911q0,5.876-1.01,7.619t-4.36,2.8v1.882h18.818V74.255q-3.717-.642-4.727-2.616t-1.01-7.8V25.74Q536.2,20,537.257,18.029t4.727-2.708V13.44H523.166v1.882a10.439,10.439,0,0,1,3.4,1.56q1.974,1.607,1.974,8.858V37.674Z" style="stroke: inherit; filter: none; fill: inherit"/>
  </g>
  <use xlink:href="#Even" style="stroke: #ff0007; filter: none; fill: none"/>
  <g style="fill: ; filter: url(#filter-4)">
    <rect id="rect" class="cls-4" x="12" y="67" width="261" height="9" style="stroke: inherit; filter: none; fill: inherit"/>
  </g>
  <use xlink:href="#rect" style="stroke: #ff0007; filter: none; fill: none"/>
  <g style="fill: ; filter: url(#filter-5)">
    <rect id="Rectangle_1_copy_2" data-name="Rectangle 1 copy 2" class="cls-5" x="565" y="66" width="261" height="9" style="stroke: inherit; filter: none; fill: inherit"/>
  </g>
  <use xlink:href="#Rectangle_1_copy_2" style="stroke: #ff0007; filter: none; fill: none"/>
  <g style="fill: ; filter: url(#filter-6)">
    <rect id="Rectangle_1_copy" data-name="Rectangle 1 copy" class="cls-6" x="12" y="242" width="128" height="9" style="stroke: inherit; filter: none; fill: inherit"/>
  </g>
  <use xlink:href="#Rectangle_1_copy" style="stroke: #ff0007; filter: none; fill: none"/>
  <g style="fill: ; filter: url(#filter-7)">
    <rect id="Rectangle_1_copy_3" data-name="Rectangle 1 copy 3" class="cls-7" x="698" y="242" width="128" height="9" style="stroke: inherit; filter: none; fill: inherit"/>
  </g>
  <use xlink:href="#Rectangle_1_copy_3" style="stroke: #ff0007; filter: none; fill: none"/>
</svg>
